HIERARCHY
ROOT Hips
{
	OFFSET	0.00	0.00	0.00
	CHANNELS 6 Xposition Yposition Zposition Zrotation Xrotation Yrotation
	JOINT Spine
	{
		OFFSET	 0.00	0.01	 0.00
		CHANNELS 3 Zrotation Xrotation Yrotation
		JOINT Spine1
		{
			OFFSET	 0.00	 2.45913012437421	 0.00
			CHANNELS 3 Zrotation Xrotation Yrotation
            JOINT Neck
            {
                OFFSET	 0.00	 2.48462964506057	 0.00
                CHANNELS 3 Zrotation Xrotation Yrotation
                JOINT Head
                {
                    OFFSET	 0.00	 0.927524780924562	 0.00
                    CHANNELS 3 Zrotation Xrotation Yrotation
                    End Site 
                    {
                        OFFSET	 0.00	 1.14999962169752	 0.00
                    }
                }
            }
			JOINT LeftShoulder
			{
				OFFSET	 0.00	 2.48462964506057	 0.00
				CHANNELS 3 Zrotation Xrotation Yrotation
				JOINT LeftUpArm
				{
					OFFSET	 0.00	 1.24881979654096	 0.00
					CHANNELS 3 Zrotation Xrotation Yrotation
					JOINT LeftForeArm
					{
						OFFSET	 0.00	2.59758046908119	 0.00
						CHANNELS 3 Zrotation Xrotation Yrotation
						JOINT LeftHand
						{
							OFFSET	 0.00	2.45542024364365	 0.00
							CHANNELS 3 Zrotation Xrotation Yrotation
							JOINT LeftHandThumb 
							{
								OFFSET	 0.00	0.00	 0.00
								CHANNELS 3 Zrotation Xrotation Yrotation
								End Site
								{
									OFFSET	 0.00	0.00	1.00000003353624
								}
							}
							JOINT L_Wrist_End 
							{
								OFFSET	 0.00	0.99999967115358	 0.00
								CHANNELS 3 Zrotation Xrotation Yrotation
								End Site 
								{
									OFFSET	 0.00	 0.00	 0.00
								}
							}
						}
					}
				}
			}
			JOINT RightShoulder
			{
				OFFSET	 0.00	 2.48462964506057	 0.00
				CHANNELS 3 Zrotation Xrotation Yrotation
				JOINT RightUpArm
				{
					OFFSET	 0.00	 1.24881979654096	 0.00
					CHANNELS 3 Zrotation Xrotation Yrotation
					JOINT RightForeArm
					{
						OFFSET	 0.00	2.59758046908119	 0.00
						CHANNELS 3 Zrotation Xrotation Yrotation
						JOINT RightHand
						{
							OFFSET	 0.00	2.45542024364365	 0.00
							CHANNELS 3 Zrotation Xrotation Yrotation
							JOINT RightHandThumb 
							{
								OFFSET	 0.00	0.00	 0.00
								CHANNELS 3 Zrotation Xrotation Yrotation
								End Site
								{
									OFFSET	 0.00	0.00	1.00000003353624
								}
							}
							JOINT R_Wrist_End 
							{
								OFFSET	 0.00	0.99999967115358	 0.00
								CHANNELS 3 Zrotation Xrotation Yrotation
								End Site 
								{
									OFFSET	 0.00	 0.00	 0.00
								}
							}
						}
					}
				}
			}
		}
	}
	JOINT LeftUpLeg
	{
		OFFSET	 1.2719394002717	 0.00	 0.00
		CHANNELS 3 Zrotation Xrotation Yrotation
		JOINT LeftLowLeg
		{
			OFFSET	 0.00	-4.3429100912261	 0.00
			CHANNELS 3 Zrotation Xrotation Yrotation
			JOINT LeftFoot
			{
				OFFSET	 0.00	-4.48767017425826	 0.00
				CHANNELS 3 Zrotation Xrotation Yrotation
				JOINT LeftToeBase
                {
                    OFFSET	 0.00	0.00	 1.51507020887566
                    CHANNELS 3 Zrotation Xrotation Yrotation
                    End Site 
                    {
                        OFFSET	 0.00	0.00	 0.75000010571191
                    }
                }
			}
		}
	}
	JOINT RightUpLeg
	{
		OFFSET	 -1.2719393604653	 0.00	 0.00
		CHANNELS 3 Zrotation Xrotation Yrotation
		JOINT RightLowLeg
		{
			OFFSET	 0.00	-4.3429100912261	 0.00
			CHANNELS 3 Zrotation Xrotation Yrotation
			JOINT RightFoot
			{
				OFFSET	 0.00	-4.48767017425826	 0.00
				CHANNELS 3 Zrotation Xrotation Yrotation
				JOINT RightToeBase
                {
                    OFFSET	 0.00	0.00	 1.51507020887566
                    CHANNELS 3 Zrotation Xrotation Yrotation
                    End Site 
                    {
                        OFFSET	 0.00	0.00	 0.749999965609858
                    }
                }   
			}
		}
	}
}
MOTION 
Frames:	6 
Frame Time: 0.02 
 -2.249459991455078 -2.0098199462890625 9.419429931640625 -152.429 79.2939 523.664 7.39954 -24.9135 -0.0999103 -5.42541 10.9927 -0.442964 21.1109 42.6122 -13.8251 -32.0081 -61.4244 335.999 -118.89 4.71171 10.3868 -39.3323 26.7782 -348.921 0.0 39.805 0.0 26.3939 -0.495402 21.7714 0.0 0.0 0.0 0.0 0.0 0.0 120.558304 -0.852121 -2.982 43.3819 12.9039 -10.9245 0.0 23.0817 0.0 -5.62193 -0.434863 -3.89482 0.0 0.0 0.0 0.0 0.0 0.0 -2.06969 -12.907 -20.5626 0.0 16.9113 0.0 0.0950246 -8.010799 20.3105 0.0 -12.2475395 0.0 7.14287 -5.46458 390.413 0.0 4.42174 0.0 6.69902 1.7839003 -25.3631 0.0 -16.49672 0.0 
  -2.234709930419922 -2.009530029296875 9.41655029296875 -150.635 79.4562 522.481 7.25446 -25.0923 -0.552869 -4.77353 11.9008 -0.621918 20.7161 41.5522 -14.1019 -32.0653 -61.1266 335.965 -118.815704 4.82227 10.034 -39.867 26.3277 -348.382 0.0 39.8668 0.0 24.6559 -1.10967 21.7282 0.0 0.0 0.0 0.0 0.0 0.0 120.003296 -0.855626 -2.42458 43.6598 12.229 -10.9153 0.0 22.1301 0.0 -5.25365 -1.09811 -6.0521 0.0 0.0 0.0 0.0 0.0 0.0 -2.18299 -13.7133 -19.4821 0.0 19.1461 0.0 0.428762 -8.434799 23.3332 0.0 -11.9529 0.0 7.28747 -5.23972 389.812 0.0 4.53716 0.0 6.70577 1.7166004 -25.3521 0.0 -16.59959 0.0 
  -2.222689971923828 -1.9978700256347657 9.40989013671875 -148.888 79.5368 520.954 7.6648 -24.2318 -0.453522 -4.83776 11.046 -1.04152 20.9672 41.6041 -14.4634 -32.7421 -61.395 335.469 -118.6944 4.40199 10.2203 -39.9978 25.7619 -347.7 0.0 39.419 0.0 22.5858 -1.72955 21.1888 0.0 0.0 0.0 0.0 0.0 0.0 120.136 -0.974349 -2.74105 43.5659 11.5817 -10.373 0.0 21.1522 0.0 -4.85076 -1.83589 -6.08639 0.0 0.0 0.0 0.0 0.0 0.0 -2.00608 -14.6484 -17.7248 0.0 21.5053 0.0 0.937129 -8.6859 25.0545 0.0 -11.81088 0.0 7.49692 -5.22951 389.736 0.0 4.79197 0.0 6.94699 1.5103998 -25.285 0.0 -16.73547 0.0 
  -2.2072999572753904 -1.9900799560546876 9.403079833984375 -147.11 79.6453 519.556 7.7167 -23.9575 -0.631621 -4.45067 11.2692 -1.24664 20.8373 41.0471 -14.5815 -33.0181 -61.5953 335.249 -118.7035 4.39635 10.2178 -40.1263 25.214 -346.86 0.0 38.5654 0.0 20.0934 -2.40335 20.658 0.0 0.0 0.0 0.0 0.0 0.0 120.0575 -1.07475 -2.6177 43.5001 11.0121 -9.99486 0.0 19.7301 0.0 -4.88998 -1.90013 -5.86603 0.0 0.0 0.0 0.0 0.0 0.0 -1.78025 -15.4379 -16.9608 0.0 23.8211 0.0 1.89715 -8.573999 25.3655 0.0 -11.74054 0.0 7.59264 -5.0357 389.436 0.0 4.7768 0.0 7.17365 1.3295002 -25.179 0.0 -16.78411 0.0 
  -2.1860699462890625 -1.9868600463867188 9.398209838867187 -145.216 79.6806 518.161 7.80939 -23.9168 -0.825537 -4.11748 11.6972 -1.45514 20.7724 40.5436 -14.6604 -33.2865 -61.9595 334.977 -118.8416 4.42652 10.0879 -40.1433 24.48 -345.619 0.0 37.4345 0.0 17.9074 -3.21043 22.0425 0.0 0.0 0.0 0.0 0.0 0.0 120.213196 -1.11752 -2.49517 43.1083 10.1818 -9.30467 0.0 18.6433 0.0 -4.72009 -2.31508 -5.43882 0.0 0.0 0.0 0.0 0.0 0.0 -1.56628 -16.1257 -17.1752 0.0 26.005 0.0 2.00588 -8.6912 24.7932 0.0 -11.73255 0.0 7.69182 -4.80595 389.524 0.0 4.68904 0.0 7.38497 1.1252003 -25.597 0.0 -16.72887 0.0 
  -2.164750061035156 -1.9871000671386718 9.393250122070313 -144.126 79.6403 517.419 7.77424 -24.0475 -0.994023 -3.78399 12.2086 -1.5142 20.6762 39.9998 -14.61 -33.1354 -62.2622 335.086 -119.0168 4.46268 10.0947 -40.0833 23.6998 -344.346 0.0 36.1021 0.0 15.5866 -4.14522 22.9835 0.0 0.0 0.0 0.0 0.0 0.0 120.4161 -1.22624 -2.41169 42.697 9.35919 -8.66572 0.0 17.5205 0.0 -4.62293 -2.5892 -5.2855 0.0 0.0 0.0 0.0 0.0 0.0 -1.39921 -16.5879 -18.0084 0.0 27.6351 0.0 1.50109 -8.503799 24.0098 0.0 -11.85697 0.0 7.66585 -4.6027 389.191 0.0 4.41016 0.0 7.41519 1.0761003 -25.6311 0.0 -16.69625 0.0 
